<mxfile host="app.diagrams.net" modified="2024-06-24T11:21:34.278Z" agent="Mozilla/5.0 (Windows NT 10.0; Win64; x64; rv:127.0) Gecko/20100101 Firefox/127.0" etag="MFK3jsHNESV3-Xu19hq8" version="24.6.2" type="github">
  <diagram name="Page-1" id="0Ogi5G-W8M8w-B_s7_Yn">
    <mxGraphModel dx="1434" dy="741" grid="1" gridSize="10" guides="1" tooltips="1" connect="1" arrows="1" fold="1" page="1" pageScale="1" pageWidth="850" pageHeight="1100" math="0" shadow="0">
      <root>
        <mxCell id="0" />
        <mxCell id="1" parent="0" />
        <mxCell id="xM5PD4kJGNp6XwFWv_8--1" value="WIFI PATIENT SAINT-OMER" style="whiteSpace=wrap;html=1;fontSize=14;verticalAlign=top;strokeColor=#FF6038;fillColor=#97D077;" vertex="1" parent="1">
          <mxGeometry x="260" y="450" width="973" height="620" as="geometry" />
        </mxCell>
        <mxCell id="xM5PD4kJGNp6XwFWv_8--2" value="" style="fontColor=#0066CC;verticalAlign=top;verticalLabelPosition=bottom;labelPosition=center;align=center;html=1;outlineConnect=0;fillColor=#CCCCCC;strokeColor=#6881B3;gradientColor=none;gradientDirection=north;strokeWidth=2;shape=mxgraph.networks.firewall;" vertex="1" parent="1">
          <mxGeometry x="540" y="730" width="100" height="100" as="geometry" />
        </mxCell>
        <mxCell id="xM5PD4kJGNp6XwFWv_8--3" value="" style="fontColor=#0066CC;verticalAlign=top;verticalLabelPosition=bottom;labelPosition=center;align=center;html=1;outlineConnect=0;fillColor=#CCCCCC;strokeColor=#6881B3;gradientColor=none;gradientDirection=north;strokeWidth=2;shape=mxgraph.networks.modem;" vertex="1" parent="1">
          <mxGeometry x="400" y="605" width="100" height="30" as="geometry" />
        </mxCell>
        <mxCell id="xM5PD4kJGNp6XwFWv_8--4" value="" style="endArrow=classic;html=1;rounded=0;" edge="1" parent="1" source="xM5PD4kJGNp6XwFWv_8--3" target="xM5PD4kJGNp6XwFWv_8--2">
          <mxGeometry width="50" height="50" relative="1" as="geometry">
            <mxPoint x="420" y="780" as="sourcePoint" />
            <mxPoint x="470" y="730" as="targetPoint" />
          </mxGeometry>
        </mxCell>
        <mxCell id="xM5PD4kJGNp6XwFWv_8--5" value="" style="fontColor=#0066CC;verticalAlign=top;verticalLabelPosition=bottom;labelPosition=center;align=center;html=1;outlineConnect=0;fillColor=#CCCCCC;strokeColor=#6881B3;gradientColor=none;gradientDirection=north;strokeWidth=2;shape=mxgraph.networks.firewall;" vertex="1" parent="1">
          <mxGeometry x="890" y="730" width="100" height="100" as="geometry" />
        </mxCell>
        <mxCell id="xM5PD4kJGNp6XwFWv_8--6" value="" style="endArrow=classic;html=1;rounded=0;" edge="1" parent="1" source="xM5PD4kJGNp6XwFWv_8--2" target="xM5PD4kJGNp6XwFWv_8--5">
          <mxGeometry width="50" height="50" relative="1" as="geometry">
            <mxPoint x="660" y="960" as="sourcePoint" />
            <mxPoint x="710" y="910" as="targetPoint" />
          </mxGeometry>
        </mxCell>
        <mxCell id="xM5PD4kJGNp6XwFWv_8--7" value="&lt;div align=&quot;center&quot;&gt;BOX SFR &lt;br&gt;&lt;/div&gt;&lt;div align=&quot;center&quot;&gt;&lt;br&gt;&lt;/div&gt;&lt;div align=&quot;center&quot;&gt;IP=X.X.X.X&lt;br&gt;&lt;/div&gt;" style="text;html=1;whiteSpace=wrap;overflow=hidden;rounded=0;" vertex="1" parent="1">
          <mxGeometry x="420" y="640" width="70" height="60" as="geometry" />
        </mxCell>
        <mxCell id="xM5PD4kJGNp6XwFWv_8--8" value="&lt;div align=&quot;center&quot;&gt;FORTIGATE 40F &lt;br&gt;&lt;/div&gt;&lt;div align=&quot;center&quot;&gt;&lt;br&gt;&lt;/div&gt;&lt;div align=&quot;center&quot;&gt;IP=X.X.X.X&lt;br&gt;&lt;/div&gt;" style="text;html=1;whiteSpace=wrap;overflow=hidden;rounded=0;" vertex="1" parent="1">
          <mxGeometry x="555" y="830" width="75" height="80" as="geometry" />
        </mxCell>
        <mxCell id="xM5PD4kJGNp6XwFWv_8--9" value="&lt;div align=&quot;center&quot;&gt;FORTIGATE 101F &lt;br&gt;&lt;/div&gt;&lt;div align=&quot;center&quot;&gt;&lt;br&gt;&lt;/div&gt;&lt;div align=&quot;center&quot;&gt;IP=X.X.X.X&lt;br&gt;&lt;/div&gt;" style="text;html=1;whiteSpace=wrap;overflow=hidden;rounded=0;" vertex="1" parent="1">
          <mxGeometry x="902.5" y="830" width="75" height="80" as="geometry" />
        </mxCell>
        <mxCell id="xM5PD4kJGNp6XwFWv_8--14" value="" style="fontColor=#0066CC;verticalAlign=top;verticalLabelPosition=bottom;labelPosition=center;align=center;html=1;outlineConnect=0;fillColor=#CCCCCC;strokeColor=#6881B3;gradientColor=none;gradientDirection=north;strokeWidth=2;shape=mxgraph.networks.wireless_modem;" vertex="1" parent="1">
          <mxGeometry x="1030" y="520" width="100" height="85" as="geometry" />
        </mxCell>
        <mxCell id="xM5PD4kJGNp6XwFWv_8--15" value="" style="endArrow=classic;html=1;rounded=0;" edge="1" parent="1" source="xM5PD4kJGNp6XwFWv_8--5" target="xM5PD4kJGNp6XwFWv_8--14">
          <mxGeometry width="50" height="50" relative="1" as="geometry">
            <mxPoint x="1020" y="700" as="sourcePoint" />
            <mxPoint x="1070" y="650" as="targetPoint" />
          </mxGeometry>
        </mxCell>
        <mxCell id="xM5PD4kJGNp6XwFWv_8--16" value="&lt;div align=&quot;center&quot;&gt;CONTROLLER&lt;/div&gt;&lt;div align=&quot;center&quot;&gt;ARUBA&lt;br&gt;&lt;/div&gt;&lt;div align=&quot;center&quot;&gt;&lt;br&gt;&lt;/div&gt;&lt;div align=&quot;center&quot;&gt;IP=X.X.X.X&lt;br&gt;&lt;/div&gt;" style="text;html=1;whiteSpace=wrap;overflow=hidden;rounded=0;" vertex="1" parent="1">
          <mxGeometry x="1042.5" y="610" width="107.5" height="80" as="geometry" />
        </mxCell>
      </root>
    </mxGraphModel>
  </diagram>
</mxfile>
